<?xml version="1.0" encoding="UTF-8" standalone="no"?>
<!-- Created with Inkscape (http://www.inkscape.org/) -->

<svg
   width="300"
   height="300"
   viewBox="0 0 300 300"
   version="1.1"
   id="svg1"
   xml:space="preserve"
   inkscape:version="1.4.2 (f4327f4, 2025-05-13)"
   sodipodi:docname="rysunek.svg"
   xmlns:inkscape="http://www.inkscape.org/namespaces/inkscape"
   xmlns:sodipodi="http://sodipodi.sourceforge.net/DTD/sodipodi-0.dtd"
   xmlns="http://www.w3.org/2000/svg"
   xmlns:svg="http://www.w3.org/2000/svg"><sodipodi:namedview
     id="namedview1"
     pagecolor="#ffffff"
     bordercolor="#000000"
     borderopacity="0.25"
     inkscape:showpageshadow="2"
     inkscape:pageopacity="0.0"
     inkscape:pagecheckerboard="0"
     inkscape:deskcolor="#d1d1d1"
     inkscape:document-units="px"
     inkscape:zoom="1.4142136"
     inkscape:cx="95.459415"
     inkscape:cy="189.85817"
     inkscape:window-width="1920"
     inkscape:window-height="1017"
     inkscape:window-x="-8"
     inkscape:window-y="-8"
     inkscape:window-maximized="1"
     inkscape:current-layer="layer1" /><defs
     id="defs1" /><g
     inkscape:label="Warstwa 1"
     inkscape:groupmode="layer"
     id="layer1"><g
       id="g4"
       transform="matrix(1.1155691,0,0,1.1155691,-20.220561,-18.021349)"><path
         style="fill:#2e926b;fill-opacity:1"
         d="m 144.19773,206.66606 c -0.28833,-0.13015 -4.72533,24.31554 -3.95233,24.31554 -0.0397,-0.007 -2.08931,4.35455 4.86614,6.01508 3.46419,0.82704 15.80087,-0.083 16.11545,-0.30956 0,0 3.49693,-0.18405 5.06135,-5.06135 0.78221,-2.43865 3.91631,-8.9963 8.70422,-16.02513 4.78791,-7.02883 11.22963,-14.52883 18.62707,-18.85217 7.42067,-4.33692 17.14196,-12.72793 25.53087,-22.44197 8.38892,-9.71404 15.44545,-20.75111 17.53662,-30.38012 3.12091,-14.37059 2.90917,-25.39323 -0.25453,-32.87939 -3.1637,-7.48616 -9.27937,-11.435831 -17.96633,-11.660487 -17.46278,-0.451609 -30.18516,0.07765 -30.18405,0.09202"
         id="path1" /><path
         style="fill:#fbba21;fill-opacity:1"
         d="m 188.28221,99.478523 c 0,0 -4.8773,0.184049 -3.03681,-5.613497 1.84049,-5.797546 39.25016,-61.069158 39.25016,-61.069158 0,0 5.76324,-7.785011 -3.82071,-8.317345 v 5e-6 l -87.69939,0.184049 c 0,0 -4.41718,-1.196319 -9.20245,9.202454 -4.78528,10.398773 -52.914114,112.085889 -52.914114,112.085889 0,0 -4.04908,8.09816 3.496932,7.17791 7.546013,-0.92024 46.012272,0 46.012272,0 0,0 10.85889,-1.10429 7.36196,10.4908 -3.49693,11.59509 -30.552146,98.46626 -31.288342,101.96319 -0.736196,3.49693 -0.920245,5.56749 3.082822,1.24233 4.00307,-4.32515 44.84094,-60.08337 44.67319,-60.15909 19.46486,-23.77554 40.25627,-48.19818 51.29633,-67.86405 11.04005,-19.66588 12.32875,-34.575 -7.21185,-39.323487 z"
         id="path2" /><ellipse
         style="fill:#2e926b;fill-opacity:1;stroke-width:0.935158"
         id="path3"
         cx="151.10835"
         cy="264.29419"
         rx="17.342922"
         ry="17.160368" /></g></g></svg>
